PathFileType	4	(X/Y/Z)	/Users/itak/Documents/Research/Walk-IL/dataset/trc/00347_00011.trc
DataRate	CameraRate	NumFrames	NumMarkers	Units	OrigDataRate	OrigDataStartFrame	OrigNumFrames
100.000000	100.000000	4	53	mm	100.000000	0	732
Frame#	Time	RPSI			LPSI			STRN			T10			C7			CLAV			RBAK			LBAK			LSHO			LUPA			LAEL			LAOL			LWTS			LWPS			LFRA			LIFD			LHPS			LHTS			RSHO			RUPA			RAEL			RAOL			RWTS			RWPS			RFRA			RHTS			RHPS			RBHD			LFHD			RFHD			LBHD			LHIP			RHIP			RASI			LASI			LKNE			LTHI			LANK			LTIP			LTOE			LMT1			LMT5			LHEE			RKNE			RANK			RTIP			RTOE			RMT1			RMT5			RHEE			L3			RIFD			RTHI			
		X1	Y1	Z1	X2	Y2	Z2	X3	Y3	Z3	X4	Y4	Z4	X5	Y5	Z5	X6	Y6	Z6	X7	Y7	Z7	X8	Y8	Z8	X9	Y9	Z9	X10	Y10	Z10	X11	Y11	Z11	X12	Y12	Z12	X13	Y13	Z13	X14	Y14	Z14	X15	Y15	Z15	X16	Y16	Z16	X17	Y17	Z17	X18	Y18	Z18	X19	Y19	Z19	X20	Y20	Z20	X21	Y21	Z21	X22	Y22	Z22	X23	Y23	Z23	X24	Y24	Z24	X25	Y25	Z25	X26	Y26	Z26	X27	Y27	Z27	X28	Y28	Z28	X29	Y29	Z29	X30	Y30	Z30	X31	Y31	Z31	X32	Y32	Z32	X33	Y33	Z33	X34	Y34	Z34	X35	Y35	Z35	X36	Y36	Z36	X37	Y37	Z37	X38	Y38	Z38	X39	Y39	Z39	X40	Y40	Z40	X41	Y41	Z41	X42	Y42	Z42	X43	Y43	Z43	X44	Y44	Z44	X45	Y45	Z45	X46	Y46	Z46	X47	Y47	Z47	X48	Y48	Z48	X49	Y49	Z49	X50	Y50	Z50	X51	Y51	Z51	X52	Y52	Z52	X53	Y53	Z53	

1	0	548.4103393554688	976.80126953125	936.1196899414062	544.7132568359375	974.8714599609375	1064.5859375	328.3927612304688	1219.635009765625	1005.738586425781	564.9591064453125	1148.326904296875	1001.625732421875	529.5030517578125	1396.5751953125	1020.380065917969	372.1233520507812	1345.010986328125	1011.575988769531	576.9066162109375	1258.49462890625	948.765869140625	537.0901489257812	1357.377319335938	1120.321044921875	451.0956115722656	1377.566650390625	1177.162109375	461.9320068359375	1255.061279296875	1242.712036132812	434.7865905761719	1050.76220703125	1247.8740234375	500.4522705078125	1037.001953125	1196.673583984375	335.7764892578125	813.28564453125	1187.310302734375	369.50927734375	799.0059814453125	1246.08154296875	415.5936889648438	946.9996948242188	1249.772338867188	328.5578308105469	653.9608764648438	1175.678955078125	369.4677124023438	727.4136352539062	1237.47216796875	319.368896484375	734.87255859375	1199.032958984375	473.8740844726562	1387.81982421875	854.99560546875	482.3233337402344	1322.380859375	790.1739501953125	469.8359680175781	1052.560546875	760.4342651367188	516.5463256835938	1045.609375	843.0200805664062	356.5347290039062	828.5210571289062	813.65869140625	393.0402526855469	810.6002197265625	748.1072998046875	442.9732666015625	985.6580810546875	755.1453247070312	324.4107971191406	727.8534545898438	800.3687744140625	375.9454040527344	726.296875	752.7208251953125	496.2274475097656	1601.346557617188	934.122802734375	327.2976989746094	1625.961181640625	1053.621948242188	336.2696228027344	1624.490112304688	953.293212890625	509.9144897460938	1597.017944335938	1078.464599609375	464.79833984375	924.3720092773438	1174.964477539062	464.3207092285156	915.3480834960938	835.2186279296875	365.3695678710938	950.5711059570312	865.544677734375	340.6814880371094	939.9995727539062	1102.832275390625	430.4956970214844	462.9290161132812	1173.28759765625	418.8541870117188	599.2052001953125	1176.068115234375	515.6705932617188	46.65359115600586	1189.6513671875	473.1124267578125	250.3708190917969	1194.128173828125	312.9696655273438	43.21563720703125	1119.61962890625	383.9504699707031	29.82899284362793	1083.237182617188	389.1619873046875	42.4554443359375	1196.488891601562	552.8878784179688	40.3986930847168	1124.205932617188	447.3267517089844	459.63232421875	828.747314453125	516.6736450195312	49.39532089233398	834.1536865234375	443.8160400390625	340.9107666015625	834.6151123046875	323.7026977539062	40.88620376586914	883.9696655273438	380.3351135253906	34.45628356933594	925.9830322265625	415.0226745605469	38.1026496887207	813.8287353515625	568.0594482421875	46.73630142211914	879.9063720703125	nan	nan	nan	nan	nan	nan	nan	nan	nan	
2	0.01	548.3719482421875	976.8230590820312	936.0595703125	544.69140625	974.9043579101562	1064.490478515625	328.3253784179688	1219.642700195312	1005.694396972656	564.9116821289062	1148.3017578125	1001.572448730469	529.4783935546875	1396.583984375	1020.291931152344	372.0793151855469	1345.025268554688	1011.533813476562	576.8741455078125	1258.499267578125	948.7105712890625	537.0896606445312	1357.3798828125	1120.30322265625	451.1148681640625	1377.607421875	1177.165771484375	461.8883972167969	1255.080078125	1242.64794921875	434.7493591308594	1050.784423828125	1247.79443359375	500.4226379394531	1037.013793945312	1196.628540039062	335.730224609375	813.2747192382812	1187.272216796875	369.4730529785156	799.0098876953125	1246.037353515625	415.5424194335938	947.0517578125	1249.72119140625	328.5361938476562	653.9620361328125	1175.678955078125	369.4198303222656	727.4757690429688	1237.440673828125	319.3200073242188	734.879638671875	1199.01318359375	473.8135681152344	1387.799926757812	854.94189453125	482.1957397460938	1322.373046875	790.086181640625	469.7253723144531	1052.548217773438	760.38427734375	516.5055541992188	1045.629516601562	842.9466552734375	356.4856872558594	828.48779296875	813.6580810546875	392.9415588378906	810.5804443359375	748.0789184570312	442.868896484375	985.6616821289062	755.1137084960938	324.3992919921875	727.8319702148438	800.3966064453125	375.8554992675781	726.2905883789062	752.7031860351562	496.2167663574219	1601.25341796875	934.0014038085938	327.2771606445312	1625.998168945312	1053.450805664062	336.3370666503906	1624.496826171875	953.079345703125	509.9052124023438	1596.996337890625	1078.29248046875	464.7764892578125	924.3323364257812	1174.873291015625	464.2705383300781	915.3353881835938	835.1707763671875	365.294921875	950.5589599609375	865.4951171875	340.6529846191406	939.9987182617188	1102.762573242188	430.4976196289062	462.9388122558594	1173.278686523438	418.8408508300781	599.2122192382812	1176.049926757812	515.6776123046875	46.65506744384766	1189.6513671875	473.1114196777344	250.3707580566406	1194.116821289062	312.9697570800781	43.21883010864258	1119.612060546875	383.9583129882812	29.8542537689209	1083.243896484375	389.1585693359375	42.45554351806641	1196.490478515625	552.8931274414062	40.40619277954102	1124.195678710938	447.3206481933594	459.6202697753906	828.7296142578125	516.64111328125	49.35440063476562	834.1383056640625	443.8132629394531	340.9111328125	834.6066284179688	323.6967468261719	40.87094497680664	883.9868774414062	380.3251037597656	34.45616149902344	925.9849853515625	415.0237121582031	38.1077995300293	813.822021484375	568.0592651367188	46.74010467529297	879.9036865234375	nan	nan	nan	nan	nan	nan	nan	nan	nan	
3	0.02	548.324462890625	976.8486328125	935.9863891601562	544.66748046875	974.9462890625	1064.365112304688	328.2492980957031	1219.652099609375	1005.638732910156	564.85302734375	1148.269775390625	1001.502197265625	529.4482421875	1396.593139648438	1020.18212890625	372.0242309570312	1345.041625976562	1011.480407714844	576.8341674804688	1258.504760742188	948.6438598632812	537.0873413085938	1357.385009765625	1120.26708984375	451.1307678222656	1377.650756835938	1177.160888671875	461.8349304199219	1255.1044921875	1242.57080078125	434.7022705078125	1050.811401367188	1247.70361328125	500.3858337402344	1037.0283203125	1196.572998046875	335.6789855957031	813.2643432617188	1187.2265625	369.4321899414062	799.0131225585938	1245.986328125	415.4785766601562	947.1122436523438	1249.660034179688	328.5179443359375	653.9637451171875	1175.678588867188	369.3577880859375	727.5560913085938	1237.398803710938	319.2564697265625	734.897705078125	1198.990112304688	473.7322998046875	1387.775024414062	854.8681640625	482.0365600585938	1322.362182617188	789.97900390625	469.59033203125	1052.533569335938	760.3217163085938	516.451416015625	1045.657958984375	842.8499145507812	356.416259765625	828.4496459960938	813.6489868164062	392.8175659179688	810.5575561523438	748.0410766601562	442.7398986816406	985.668701171875	755.075439453125	324.3836059570312	727.8076171875	800.4297485351562	375.7362060546875	726.2836303710938	752.6764526367188	496.2066040039062	1601.144287109375	933.8621215820312	327.2646179199219	1626.03466796875	1053.2333984375	336.4138793945312	1624.50830078125	952.8175659179688	509.8945922851562	1596.968017578125	1078.084594726562	464.7474365234375	924.28955078125	1174.75830078125	464.1993103027344	915.318359375	835.1137084960938	365.2006225585938	950.541748046875	865.4331665039062	340.6157531738281	940.0015869140625	1102.679443359375	430.4996337890625	462.9496765136719	1173.26611328125	418.8244934082031	599.2196655273438	1176.025756835938	515.6842651367188	46.6562614440918	1189.650268554688	473.1066284179688	250.3686065673828	1194.104370117188	312.968017578125	43.21854400634766	1119.603393554688	383.96826171875	29.87996482849121	1083.250732421875	389.1554260253906	42.45589828491211	1196.4921875	552.8981323242188	40.41495895385742	1124.185791015625	447.3126220703125	459.6058959960938	828.703369140625	516.60888671875	49.31642532348633	834.1224365234375	443.8084411621094	340.9133605957031	834.5949096679688	323.6937255859375	40.86357498168945	883.996337890625	380.31640625	34.45705413818359	925.9838256835938	415.0238342285156	38.11235809326172	813.8154907226562	568.0582885742188	46.74333572387695	879.89990234375	548.3050537109375	1028.015869140625	993.465576171875	345.4305725097656	656.9854125976562	815.8720703125	403.9347229003906	717.8278198242188	812.7977905273438	
4	0.03	548.26953125	976.8753051757812	935.903564453125	544.6435546875	974.9945678710938	1064.21435546875	328.169921875	1219.662841796875	1005.575622558594	564.784912109375	1148.231811523438	1001.417236328125	529.414306640625	1396.601440429688	1020.055908203125	371.9609985351562	1345.057983398438	1011.418823242188	576.7880249023438	1258.511352539062	948.5692749023438	537.0825805664062	1357.39306640625	1120.210571289062	451.14013671875	1377.691284179688	1177.145629882812	461.7749328613281	1255.133056640625	1242.484741210938	434.6475830078125	1050.840942382812	1247.609741210938	500.3438415527344	1037.044677734375	1196.510620117188	335.6268615722656	813.257568359375	1187.178344726562	369.390380859375	799.014892578125	1245.93212890625	415.4054870605469	947.1762084960938	1249.59326171875	328.5083923339844	653.9641723632812	1175.676025390625	369.2843933105469	727.6500244140625	1237.348022460938	319.1807556152344	734.929931640625	1198.96533203125	473.6315307617188	1387.746337890625	854.775634765625	481.8541870117188	1322.348022460938	789.858642578125	469.437744140625	1052.518310546875	760.2489013671875	516.3843994140625	1045.693725585938	842.7308959960938	356.3255310058594	828.4110107421875	813.6275634765625	392.6739196777344	810.5339965820312	747.994384765625	442.5933227539062	985.67919921875	755.0331420898438	324.3627624511719	727.7828369140625	800.4644165039062	375.5907287597656	726.2767333984375	752.6392211914062	496.1993408203125	1601.02783203125	933.7160034179688	327.267578125	1626.065307617188	1052.976928710938	336.4925842285156	1624.525268554688	952.5228271484375	509.8840942382812	1596.934326171875	1077.853271484375	464.7134704589844	924.2482299804688	1174.624877929688	464.1072998046875	915.2979736328125	835.0492553710938	365.0900268554688	950.519775390625	865.3616333007812	340.5718078613281	940.0087890625	1102.588989257812	430.5010375976562	462.9594116210938	1173.248168945312	418.8060302734375	599.2265625	1175.995727539062	515.68994140625	46.65740203857422	1189.647705078125	473.0979614257812	250.3650512695312	1194.091064453125	312.9639587402344	43.21419906616211	1119.594116210938	383.9797973632812	29.9033203125	1083.256469726562	389.1528015136719	42.45660781860352	1196.494018554688	552.9024658203125	40.42352294921875	1124.176879882812	447.3024291992188	459.5898742675781	828.6692504882812	516.580810546875	49.28608703613281	834.1083984375	443.8013305664062	340.91748046875	834.5795288085938	323.6943664550781	40.86552429199219	883.9962158203125	380.3112182617188	34.45908737182617	925.9796752929688	415.0231628417969	38.11592864990234	813.8097534179688	568.056640625	46.74582290649414	879.8952026367188	548.23828125	1027.996459960938	993.3876953125	345.3753356933594	656.9749145507812	815.856201171875	403.9391784667969	717.8680419921875	812.6786499023438	
